<svg height="481pt" viewBox="0 0 1550 481" width="1550pt" xmlns="http://www.w3.org/2000/svg"><g transform="translate(4 477)"><g><path d="m804.5-36h-67c-6 0-12 6-12 12v12c0 6 6 12 12 12h67c6 0 12-6 12-12v-12c0-6-6-12-12-12" fill="none" stroke="#56d8c1" stroke-width="2"/><text font-family="sans" font-size="10" text-anchor="middle" x="771" y="-15.5">finetune_config</text></g><g><path d="m798.5-180h-55c-6 0-12 6-12 12v12c0 6 6 12 12 12h55c6 0 12-6 12-12v-12c0-6-6-12-12-12" fill="none" stroke="#56c1d8" stroke-width="2"/><text font-family="sans" font-size="10" text-anchor="middle" x="771" y="-159.5">test_pretrain</text></g><g><path d="m378.5-108h-51c-6 0-12 6-12 12v12c0 6 6 12 12 12h51c6 0 12-6 12-12v-12c0-6-6-12-12-12" fill="none" stroke="#d88d56" stroke-width="2"/><g font-family="sans" font-size="10" text-anchor="middle"><text x="353" y="-93">finetune</text><text x="353" y="-82">fraction: 0.1</text></g></g><g stroke="#808080" stroke-width="2"><path d="m731.5-158.04c-66.63 5.58-205.53 19.69-330.97 50.21" fill="none"/><path d="m401.31-104.42-10.55-.99 8.86-5.8z" fill="#808080"/></g><g><path d="m471.5-108h-51c-6 0-12 6-12 12v12c0 6 6 12 12 12h51c6 0 12-6 12-12v-12c0-6-6-12-12-12" fill="none" stroke="#d88d56" stroke-width="2"/><g font-family="sans" font-size="10" text-anchor="middle"><text x="446" y="-93">finetune</text><text x="446" y="-82">fraction: 0.5</text></g></g><g stroke="#808080" stroke-width="2"><path d="m731.42-155.48c-52.42 7.76-147.78 23.39-238.04 47.62" fill="none"/><path d="m494.11-104.43-10.57-.74 8.73-6.01z" fill="#808080"/></g><g><path d="m564.5-108h-51c-6 0-12 6-12 12v12c0 6 6 12 12 12h51c6 0 12-6 12-12v-12c0-6-6-12-12-12" fill="none" stroke="#d88d56" stroke-width="2"/><g font-family="sans" font-size="10" text-anchor="middle"><text x="539" y="-93">finetune</text><text x="539" y="-82">fraction: 1.0</text></g></g><g stroke="#808080" stroke-width="2"><path d="m731.43-150.5c-35.56 9.62-89.39 24.64-145.11 42.51" fill="none"/><path d="m587.22-104.61-10.59-.26 8.44-6.4z" fill="#808080"/></g><g><path d="m657.5-108h-51c-6 0-12 6-12 12v12c0 6 6 12 12 12h51c6 0 12-6 12-12v-12c0-6-6-12-12-12" fill="none" stroke="#d88d56" stroke-width="2"/><g font-family="sans" font-size="10" text-anchor="middle"><text x="632" y="-93">finetune</text><text x="632" y="-82">fraction: 0.2</text></g></g><g stroke="#808080" stroke-width="2"><path d="m737-143.88c-18.6 9.37-41.83 21.07-61.71 31.08" fill="none"/><path d="m676.64-109.56-10.51 1.37 7.36-7.62z" fill="#808080"/></g><g><path d="m750.5-108h-51c-6 0-12 6-12 12v12c0 6 6 12 12 12h51c6 0 12-6 12-12v-12c0-6-6-12-12-12" fill="none" stroke="#d88d56" stroke-width="2"/><g font-family="sans" font-size="10" text-anchor="middle"><text x="725" y="-93">finetune</text><text x="725" y="-82">fraction: 0.3</text></g></g><g stroke="#808080" stroke-width="2"><path d="m759.63-143.7c-5.35 8.14-11.83 18.01-17.74 27" fill="none"/><path d="m744.66-114.54-8.42 6.44 2.57-10.28z" fill="#808080"/></g><g><path d="m843.5-108h-51c-6 0-12 6-12 12v12c0 6 6 12 12 12h51c6 0 12-6 12-12v-12c0-6-6-12-12-12" fill="none" stroke="#d88d56" stroke-width="2"/><g font-family="sans" font-size="10" text-anchor="middle"><text x="818" y="-93">finetune</text><text x="818" y="-82">fraction: 0.4</text></g></g><g stroke="#808080" stroke-width="2"><path d="m782.62-143.7c5.52 8.23 12.23 18.22 18.31 27.28" fill="none"/><path d="m803.85-118.36 2.67 10.26-8.48-6.36z" fill="#808080"/></g><g><path d="m936.5-108h-51c-6 0-12 6-12 12v12c0 6 6 12 12 12h51c6 0 12-6 12-12v-12c0-6-6-12-12-12" fill="none" stroke="#d88d56" stroke-width="2"/><g font-family="sans" font-size="10" text-anchor="middle"><text x="911" y="-93">finetune</text><text x="911" y="-82">fraction: 0.6</text></g></g><g stroke="#808080" stroke-width="2"><path d="m805.25-143.88c18.81 9.41 42.33 21.17 62.42 31.21" fill="none"/><path d="m869.24-115.79 7.38 7.6-10.51-1.34z" fill="#808080"/></g><g><path d="m1029.5-108h-51c-6 0-12 6-12 12v12c0 6 6 12 12 12h51c6 0 12-6 12-12v-12c0-6-6-12-12-12" fill="none" stroke="#d88d56" stroke-width="2"/><g font-family="sans" font-size="10" text-anchor="middle"><text x="1004" y="-93">finetune</text><text x="1004" y="-82">fraction: 0.7</text></g></g><g stroke="#808080" stroke-width="2"><path d="m810.67-150.72c35.96 9.54 90.58 24.55 146.11 42.43" fill="none"/><path d="m958-111.57 8.43 6.41-10.59.24z" fill="#808080"/></g><g><path d="m1122.5-108h-51c-6 0-12 6-12 12v12c0 6 6 12 12 12h51c6 0 12-6 12-12v-12c0-6-6-12-12-12" fill="none" stroke="#d88d56" stroke-width="2"/><g font-family="sans" font-size="10" text-anchor="middle"><text x="1097" y="-93">finetune</text><text x="1097" y="-82">fraction: 0.8</text></g></g><g stroke="#808080" stroke-width="2"><path d="m810.89-155.59c52.83 7.62 148.9 23.11 238.59 47.39" fill="none"/><path d="m1050.55-111.54 8.71 6.02-10.57.73z" fill="#808080"/></g><g><path d="m1215.5-108h-51c-6 0-12 6-12 12v12c0 6 6 12 12 12h51c6 0 12-6 12-12v-12c0-6-6-12-12-12" fill="none" stroke="#d88d56" stroke-width="2"/><g font-family="sans" font-size="10" text-anchor="middle"><text x="1190" y="-93">finetune</text><text x="1190" y="-82">fraction: 0.9</text></g></g><g stroke="#808080" stroke-width="2"><path d="m810.74-158.15c67.02 5.42 206.72 19.29 331.81 50.05" fill="none"/><path d="m1143.45-111.48 8.85 5.82-10.55.97z" fill="#808080"/></g><g><path d="m853.5-329h-165c-6 0-12 6-12 12v12c0 6 6 12 12 12h165c6 0 12-6 12-12v-12c0-6-6-12-12-12" fill="none" stroke="#568ad8" stroke-dasharray="5 2" stroke-width="2"/><g font-family="sans" font-size="10" text-anchor="middle"><text x="771" y="-314">generate_dataset</text><text x="771" y="-303">dataset_name: original_strats_data</text></g></g><g><path d="m442.5-257h-35c-6 0-12 6-12 12v17c0 6 6 12 12 12h35c6 0 12-6 12-12v-17c0-6-6-12-12-12" fill="none" stroke="#88d856" stroke-width="2"/><g font-family="sans" font-size="10" text-anchor="middle"><text x="425" y="-245">pretrain</text><text x="425" y="-234">file: ecdf</text><text x="425" y="-223">fold: 1</text></g></g><g stroke="#808080" stroke-width="2"><path d="m676.23-300.9c-59.05 7.36-136.34 20.06-211.71 44.22" fill="none"/><path d="m465.46-253.3-10.6-.22 8.42-6.44z" fill="#808080"/></g><g><path d="m519.5-257h-35c-6 0-12 6-12 12v17c0 6 6 12 12 12h35c6 0 12-6 12-12v-17c0-6-6-12-12-12" fill="none" stroke="#88d856" stroke-width="2"/><g font-family="sans" font-size="10" text-anchor="middle"><text x="502" y="-245">pretrain</text><text x="502" y="-234">file: ecdf</text><text x="502" y="-223">fold: 2</text></g></g><g stroke="#808080" stroke-width="2"><path d="m676.39-293.47c-39.57 8.17-85.91 19.38-134.95 36.7" fill="none"/><path d="m542.52-253.44-10.6.1 8.23-6.68z" fill="#808080"/></g><g><path d="m596.5-257h-35c-6 0-12 6-12 12v17c0 6 6 12 12 12h35c6 0 12-6 12-12v-17c0-6-6-12-12-12" fill="none" stroke="#88d856" stroke-width="2"/><g font-family="sans" font-size="10" text-anchor="middle"><text x="579" y="-245">pretrain</text><text x="579" y="-234">file: ecdf</text><text x="579" y="-223">fold: 3</text></g></g><g stroke="#808080" stroke-width="2"><path d="m716.18-292.93c-29.45 9.65-66.18 22.46-98.18 35.93-.1.04-.19.08-.29.12" fill="none"/><path d="m619.18-253.7-10.56.89 7.7-7.28z" fill="#808080"/></g><g><path d="m673.5-257h-35c-6 0-12 6-12 12v17c0 6 6 12 12 12h35c6 0 12-6 12-12v-17c0-6-6-12-12-12" fill="none" stroke="#88d856" stroke-width="2"/><g font-family="sans" font-size="10" text-anchor="middle"><text x="656" y="-245">pretrain</text><text x="656" y="-234">file: ecdf</text><text x="656" y="-223">fold: 4</text></g></g><g stroke="#808080" stroke-width="2"><path d="m743.75-292.82c-14.69 9.26-33.05 20.83-49.17 31" fill="none"/><path d="m696.21-258.71-10.33 2.37 6.6-8.29z" fill="#808080"/></g><g><path d="m750.5-257h-35c-6 0-12 6-12 12v17c0 6 6 12 12 12h35c6 0 12-6 12-12v-17c0-6-6-12-12-12" fill="none" stroke="#88d856" stroke-width="2"/><g font-family="sans" font-size="10" text-anchor="middle"><text x="733" y="-245">pretrain</text><text x="733" y="-234">file: ecdf</text><text x="733" y="-223">fold: 5</text></g></g><g stroke="#808080" stroke-width="2"><path d="m761.99-292.82c-4.17 7.96-9.23 17.63-13.96 26.64" fill="none"/><path d="m751.03-264.35-7.75 7.23 1.55-10.48z" fill="#808080"/></g><g><path d="m827.5-257h-35c-6 0-12 6-12 12v17c0 6 6 12 12 12h35c6 0 12-6 12-12v-17c0-6-6-12-12-12" fill="none" stroke="#88d856" stroke-width="2"/><g font-family="sans" font-size="10" text-anchor="middle"><text x="810" y="-245">pretrain</text><text x="810" y="-234">file: ecdf</text><text x="810" y="-223">fold: 6</text></g></g><g stroke="#808080" stroke-width="2"><path d="m780.24-292.82c4.28 7.96 9.48 17.63 14.33 26.64" fill="none"/><path d="m797.79-267.58 1.66 10.46-7.82-7.15z" fill="#808080"/></g><g><path d="m904.5-257h-35c-6 0-12 6-12 12v17c0 6 6 12 12 12h35c6 0 12-6 12-12v-17c0-6-6-12-12-12" fill="none" stroke="#88d856" stroke-width="2"/><g font-family="sans" font-size="10" text-anchor="middle"><text x="887" y="-245">pretrain</text><text x="887" y="-234">file: ecdf</text><text x="887" y="-223">fold: 7</text></g></g><g stroke="#808080" stroke-width="2"><path d="m798.49-292.82c14.92 9.33 33.62 21.01 49.97 31.23" fill="none"/><path d="m850.64-264.35 6.63 8.27-10.34-2.33z" fill="#808080"/></g><g><path d="m981.5-257h-35c-6 0-12 6-12 12v17c0 6 6 12 12 12h35c6 0 12-6 12-12v-17c0-6-6-12-12-12" fill="none" stroke="#88d856" stroke-width="2"/><g font-family="sans" font-size="10" text-anchor="middle"><text x="964" y="-245">pretrain</text><text x="964" y="-234">file: ecdf</text><text x="964" y="-223">fold: 8</text></g></g><g stroke="#808080" stroke-width="2"><path d="m827.33-292.91c27.41 8.82 60.89 20.32 97.59 35.68" fill="none"/><path d="m926.49-260.37 7.83 7.13-10.57-.69z" fill="#808080"/></g><g><path d="m1058.5-257h-35c-6 0-12 6-12 12v17c0 6 6 12 12 12h35c6 0 12-6 12-12v-17c0-6-6-12-12-12" fill="none" stroke="#88d856" stroke-width="2"/><g font-family="sans" font-size="10" text-anchor="middle"><text x="1041" y="-245">pretrain</text><text x="1041" y="-234">file: ecdf</text><text x="1041" y="-223">fold: 9</text></g></g><g stroke="#808080" stroke-width="2"><path d="m865.67-293.94c40.09 8.13 87.17 19.42 136.26 36.93" fill="none"/><path d="m1003.25-260.26 8.2 6.71-10.6-.13z" fill="#808080"/></g><g><path d="m1135.5-257h-35c-6 0-12 6-12 12v17c0 6 6 12 12 12h35c6 0 12-6 12-12v-17c0-6-6-12-12-12" fill="none" stroke="#88d856" stroke-width="2"/><g font-family="sans" font-size="10" text-anchor="middle"><text x="1118" y="-245">pretrain</text><text x="1118" y="-234">file: ecdf</text><text x="1118" y="-223">fold: 10</text></g></g><g stroke="#808080" stroke-width="2"><path d="m865.78-301.3c59.55 7.22 137.67 19.91 212.69 44.22" fill="none"/><path d="m1079.69-260.37 8.39 6.47-10.6.18z" fill="#808080"/></g><g><path d="m126-401h-114c-6 0-12 6-12 12v12c0 6 6 12 12 12h114c6 0 12-6 12-12v-12c0-6-6-12-12-12" fill="none" stroke="#d85656" stroke-dasharray="5 2" stroke-width="2"/><text font-family="sans" font-size="10" text-anchor="middle" x="69" y="-380.5">convert_data_to_parquet</text></g><g stroke="#808080" stroke-width="2"><path d="m138.24-366.42c2.95.51 5.88.99 8.76 1.42 181.43 27.36 394.82 41.68 519.19 48.26" fill="none"/><path d="m666.66-320.22 9.81 4.02-10.17 2.97z" fill="#808080"/></g><g><path d="m111.5-473h-85c-6 0-12 6-12 12v12c0 6 6 12 12 12h85c6 0 12-6 12-12v-12c0-6-6-12-12-12" fill="none" stroke="#56d88a" stroke-dasharray="5 2" stroke-width="2"/><g font-family="sans" font-size="10" text-anchor="middle"><text x="69" y="-458">download_data</text><text x="69" y="-447">file: CHARTEVENTS</text></g></g><g stroke="#808080" stroke-width="2"><path d="m69-436.7v25.59" fill="none"/><path d="m72.5-411.1-3.5 10-3.5-10z" fill="#808080"/></g><g><path d="m282-401h-114c-6 0-12 6-12 12v12c0 6 6 12 12 12h114c6 0 12-6 12-12v-12c0-6-6-12-12-12" fill="none" stroke="#d85656" stroke-dasharray="5 2" stroke-width="2"/><text font-family="sans" font-size="10" text-anchor="middle" x="225" y="-380.5">convert_data_to_parquet</text></g><g stroke="#808080" stroke-width="2"><path d="m294.25-366.52c2.95.53 5.88 1.05 8.75 1.52 124.16 20.51 268.16 35.51 363.29 44.22" fill="none"/><path d="m666.85-324.25 9.64 4.39-10.28 2.58z" fill="#808080"/></g><g><path d="m275.5-473h-101c-6 0-12 6-12 12v12c0 6 6 12 12 12h101c6 0 12-6 12-12v-12c0-6-6-12-12-12" fill="none" stroke="#56d88a" stroke-dasharray="5 2" stroke-width="2"/><g font-family="sans" font-size="10" text-anchor="middle"><text x="225" y="-458">download_data</text><text x="225" y="-447">file: INPUTEVENTS_CV</text></g></g><g stroke="#808080" stroke-width="2"><path d="m225-436.7v25.59" fill="none"/><path d="m228.5-411.1-3.5 10-3.5-10z" fill="#808080"/></g><g><path d="m438-401h-114c-6 0-12 6-12 12v12c0 6 6 12 12 12h114c6 0 12-6 12-12v-12c0-6-6-12-12-12" fill="none" stroke="#d85656" stroke-dasharray="5 2" stroke-width="2"/><text font-family="sans" font-size="10" text-anchor="middle" x="381" y="-380.5">convert_data_to_parquet</text></g><g stroke="#808080" stroke-width="2"><path d="m450.29-366.72c2.94.59 5.85 1.17 8.71 1.72 68.85 13.34 146.61 26.56 207.27 36.45" fill="none"/><path d="m666.93-331.99 9.31 5.06-10.43 1.85z" fill="#808080"/></g><g><path d="m432.5-473h-103c-6 0-12 6-12 12v12c0 6 6 12 12 12h103c6 0 12-6 12-12v-12c0-6-6-12-12-12" fill="none" stroke="#56d88a" stroke-dasharray="5 2" stroke-width="2"/><g font-family="sans" font-size="10" text-anchor="middle"><text x="381" y="-458">download_data</text><text x="381" y="-447">file: INPUTEVENTS_MV</text></g></g><g stroke="#808080" stroke-width="2"><path d="m381-436.7v25.59" fill="none"/><path d="m384.5-411.1-3.5 10-3.5-10z" fill="#808080"/></g><g><path d="m594-401h-114c-6 0-12 6-12 12v12c0 6 6 12 12 12h114c6 0 12-6 12-12v-12c0-6-6-12-12-12" fill="none" stroke="#d85656" stroke-dasharray="5 2" stroke-width="2"/><text font-family="sans" font-size="10" text-anchor="middle" x="537" y="-380.5">convert_data_to_parquet</text></g><g stroke="#808080" stroke-width="2"><path d="m593.94-364.97c33.27 9.96 75.42 22.56 110.25 32.98" fill="none"/><path d="m705.22-335.33 8.58 6.22-10.58.49z" fill="#808080"/></g><g><path d="m570.5-473h-67c-6 0-12 6-12 12v12c0 6 6 12 12 12h67c6 0 12-6 12-12v-12c0-6-6-12-12-12" fill="none" stroke="#56d88a" stroke-dasharray="5 2" stroke-width="2"/><g font-family="sans" font-size="10" text-anchor="middle"><text x="537" y="-458">download_data</text><text x="537" y="-447">file: ICUSTAYS</text></g></g><g stroke="#808080" stroke-width="2"><path d="m537-436.7v25.59" fill="none"/><path d="m540.5-411.1-3.5 10-3.5-10z" fill="#808080"/></g><g><path d="m750-401h-114c-6 0-12 6-12 12v12c0 6 6 12 12 12h114c6 0 12-6 12-12v-12c0-6-6-12-12-12" fill="none" stroke="#d85656" stroke-dasharray="5 2" stroke-width="2"/><text font-family="sans" font-size="10" text-anchor="middle" x="693" y="-380.5">convert_data_to_parquet</text></g><g stroke="#808080" stroke-width="2"><path d="m712.28-364.7c9.64 8.65 21.45 19.25 31.95 28.67" fill="none"/><path d="m746.84-338.39 5.1 9.29-9.78-4.08z" fill="#808080"/></g><g><path d="m726.5-473h-67c-6 0-12 6-12 12v12c0 6 6 12 12 12h67c6 0 12-6 12-12v-12c0-6-6-12-12-12" fill="none" stroke="#56d88a" stroke-dasharray="5 2" stroke-width="2"/><g font-family="sans" font-size="10" text-anchor="middle"><text x="693" y="-458">download_data</text><text x="693" y="-447">file: D_ITEMS</text></g></g><g stroke="#808080" stroke-width="2"><path d="m693-436.7v25.59" fill="none"/><path d="m696.5-411.1-3.5 10-3.5-10z" fill="#808080"/></g><g><path d="m906-401h-114c-6 0-12 6-12 12v12c0 6 6 12 12 12h114c6 0 12-6 12-12v-12c0-6-6-12-12-12" fill="none" stroke="#d85656" stroke-dasharray="5 2" stroke-width="2"/><text font-family="sans" font-size="10" text-anchor="middle" x="849" y="-380.5">convert_data_to_parquet</text></g><g stroke="#808080" stroke-width="2"><path d="m829.72-364.7c-9.64 8.65-21.45 19.25-31.95 28.67" fill="none"/><path d="m799.84-333.18-9.78 4.08 5.1-9.29z" fill="#808080"/></g><g><path d="m887-473h-76c-6 0-12 6-12 12v12c0 6 6 12 12 12h76c6 0 12-6 12-12v-12c0-6-6-12-12-12" fill="none" stroke="#56d88a" stroke-dasharray="5 2" stroke-width="2"/><g font-family="sans" font-size="10" text-anchor="middle"><text x="849" y="-458">download_data</text><text x="849" y="-447">file: D_LABITEMS</text></g></g><g stroke="#808080" stroke-width="2"><path d="m849-436.7v25.59" fill="none"/><path d="m852.5-411.1-3.5 10-3.5-10z" fill="#808080"/></g><g><path d="m1062-401h-114c-6 0-12 6-12 12v12c0 6 6 12 12 12h114c6 0 12-6 12-12v-12c0-6-6-12-12-12" fill="none" stroke="#d85656" stroke-dasharray="5 2" stroke-width="2"/><text font-family="sans" font-size="10" text-anchor="middle" x="1005" y="-380.5">convert_data_to_parquet</text></g><g stroke="#808080" stroke-width="2"><path d="m948.06-364.97c-33.27 9.96-75.42 22.56-110.25 32.98" fill="none"/><path d="m838.78-328.62-10.58-.49 8.58-6.22z" fill="#808080"/></g><g><path d="m1043-473h-76c-6 0-12 6-12 12v12c0 6 6 12 12 12h76c6 0 12-6 12-12v-12c0-6-6-12-12-12" fill="none" stroke="#56d88a" stroke-dasharray="5 2" stroke-width="2"/><g font-family="sans" font-size="10" text-anchor="middle"><text x="1005" y="-458">download_data</text><text x="1005" y="-447">file: ADMISSIONS</text></g></g><g stroke="#808080" stroke-width="2"><path d="m1005-436.7v25.59" fill="none"/><path d="m1008.5-411.1-3.5 10-3.5-10z" fill="#808080"/></g><g><path d="m1218-401h-114c-6 0-12 6-12 12v12c0 6 6 12 12 12h114c6 0 12-6 12-12v-12c0-6-6-12-12-12" fill="none" stroke="#d85656" stroke-dasharray="5 2" stroke-width="2"/><text font-family="sans" font-size="10" text-anchor="middle" x="1161" y="-380.5">convert_data_to_parquet</text></g><g stroke="#808080" stroke-width="2"><path d="m1091.71-366.72c-2.94.59-5.85 1.17-8.71 1.72-68.85 13.34-146.61 26.56-207.27 36.45" fill="none"/><path d="m876.19-325.08-10.43-1.85 9.31-5.06z" fill="#808080"/></g><g><path d="m1196.5-473h-71c-6 0-12 6-12 12v12c0 6 6 12 12 12h71c6 0 12-6 12-12v-12c0-6-6-12-12-12" fill="none" stroke="#56d88a" stroke-dasharray="5 2" stroke-width="2"/><g font-family="sans" font-size="10" text-anchor="middle"><text x="1161" y="-458">download_data</text><text x="1161" y="-447">file: LABEVENTS</text></g></g><g stroke="#808080" stroke-width="2"><path d="m1161-436.7v25.59" fill="none"/><path d="m1164.5-411.1-3.5 10-3.5-10z" fill="#808080"/></g><g><path d="m1374-401h-114c-6 0-12 6-12 12v12c0 6 6 12 12 12h114c6 0 12-6 12-12v-12c0-6-6-12-12-12" fill="none" stroke="#d85656" stroke-dasharray="5 2" stroke-width="2"/><text font-family="sans" font-size="10" text-anchor="middle" x="1317" y="-380.5">convert_data_to_parquet</text></g><g stroke="#808080" stroke-width="2"><path d="m1247.75-366.52c-2.95.53-5.88 1.05-8.75 1.52-124.16 20.51-268.16 35.51-363.29 44.22" fill="none"/><path d="m875.79-317.28-10.28-2.58 9.64-4.39z" fill="#808080"/></g><g><path d="m1350.5-473h-67c-6 0-12 6-12 12v12c0 6 6 12 12 12h67c6 0 12-6 12-12v-12c0-6-6-12-12-12" fill="none" stroke="#56d88a" stroke-dasharray="5 2" stroke-width="2"/><g font-family="sans" font-size="10" text-anchor="middle"><text x="1317" y="-458">download_data</text><text x="1317" y="-447">file: PATIENTS</text></g></g><g stroke="#808080" stroke-width="2"><path d="m1317-436.7v25.59" fill="none"/><path d="m1320.5-411.1-3.5 10-3.5-10z" fill="#808080"/></g><g><path d="m1530-401h-114c-6 0-12 6-12 12v12c0 6 6 12 12 12h114c6 0 12-6 12-12v-12c0-6-6-12-12-12" fill="none" stroke="#d85656" stroke-dasharray="5 2" stroke-width="2"/><text font-family="sans" font-size="10" text-anchor="middle" x="1473" y="-380.5">convert_data_to_parquet</text></g><g stroke="#808080" stroke-width="2"><path d="m1403.76-366.42c-2.95.51-5.88.99-8.76 1.42-181.43 27.36-394.82 41.68-519.19 48.26" fill="none"/><path d="m875.7-313.23-10.17-2.97 9.81-4.02z" fill="#808080"/></g><g><path d="m1519-473h-92c-6 0-12 6-12 12v12c0 6 6 12 12 12h92c6 0 12-6 12-12v-12c0-6-6-12-12-12" fill="none" stroke="#56d88a" stroke-dasharray="5 2" stroke-width="2"/><g font-family="sans" font-size="10" text-anchor="middle"><text x="1473" y="-458">download_data</text><text x="1473" y="-447">file: OUTPUTEVENTS</text></g></g><g stroke="#808080" stroke-width="2"><g><path d="m1473-436.7v25.59" fill="none"/><path d="m1476.5-411.1-3.5 10-3.5-10z" fill="#808080"/></g><g><path d="m454.86-219.48c3.04 1.3 6.12 2.49 9.14 3.48 87.92 28.87 195.46 42.83 257.11 48.91" fill="none"/><path d="m721.72-170.55 9.62 4.43-10.29 2.54z" fill="#808080"/></g><g><path d="m531.92-219.66c3.03 1.34 6.09 2.58 9.08 3.66 60.35 21.69 132.88 36.67 180.14 45.04" fill="none"/><path d="m721.86-174.39 9.26 5.16-10.45 1.74z" fill="#808080"/></g><g><path d="m608.62-220.19c3.14 1.47 6.31 2.9 9.38 4.19 33.98 14.31 73.31 27.87 103.58 37.69" fill="none"/><path d="m723.03-181.52 8.45 6.4-10.59.27z" fill="#808080"/></g><g><path d="m685.62-216.83c15.16 9.56 33.73 21.27 49.68 31.32" fill="none"/><path d="m737.26-188.41 6.59 8.29-10.33-2.37z" fill="#808080"/></g><g><path d="m743.38-215.69c4.26 8.13 9.26 17.66 13.82 26.36" fill="none"/><path d="m760.38-190.8 1.54 10.48-7.74-7.23z" fill="#808080"/></g><g><path d="m799.34-215.69c-4.37 8.13-9.49 17.66-14.18 26.36" fill="none"/><path d="m788.14-187.47-7.82 7.15 1.65-10.46z" fill="#808080"/></g><g><path d="m857.43-217.02c-15.29 9.56-34.09 21.31-50.24 31.4" fill="none"/><path d="m808.86-182.54-10.33 2.34 6.62-8.27z" fill="#808080"/></g><g><path d="m934.32-219.76c-2.79 1.33-5.59 2.6-8.32 3.76-34.6 14.7-74.8 28.35-105.59 38.12" fill="none"/><path d="m821.36-174.51-10.59-.34 8.49-6.34z" fill="#808080"/></g><g><path d="m1011.45-219.45c-2.82 1.26-5.66 2.43-8.45 3.45-60.94 22.2-134.38 37.1-182.07 45.31" fill="none"/><path d="m821.3-167.2-10.44-1.79 9.28-5.12z" fill="#808080"/></g><g><path d="m1088.08-219.1c-2.69 1.15-5.41 2.21-8.08 3.1-88.34 29.47-196.63 43.22-258.74 49.1" fill="none"/><path d="m821.24-163.38-10.28-2.57 9.64-4.4z" fill="#808080"/></g><g><path d="m390.76-74.59c3.1.95 6.21 1.83 9.24 2.59 109.81 27.39 241.68 42.03 314.93 48.6" fill="none"/><path d="m715.65-26.85 9.66 4.36-10.27 2.61z" fill="#808080"/></g><g><path d="m483.54-74.83c3.18 1.02 6.36 1.98 9.46 2.83 75.83 20.8 165.5 36.31 222.06 45.01" fill="none"/><path d="m715.87-30.41 9.36 4.97-10.41 1.95z" fill="#808080"/></g><g><path d="m576.63-75.13c3.16 1.08 6.32 2.14 9.37 3.13 43 13.92 92.22 27.93 129.07 38.04" fill="none"/><path d="m716.4-37.22 8.72 6.01-10.57.74z" fill="#808080"/></g><g><path d="m666-71.88c18.6 9.37 41.83 21.07 61.71 31.08" fill="none"/><path d="m729.51-43.81 7.36 7.62-10.51-1.37z" fill="#808080"/></g><g><path d="m736.37-71.7c5.35 8.14 11.83 18.01 17.74 27" fill="none"/><path d="m757.19-46.38 2.57 10.28-8.42-6.44z" fill="#808080"/></g><g><path d="m806.38-71.7c-5.52 8.23-12.23 18.22-18.31 27.28" fill="none"/><path d="m790.96-42.46-8.48 6.36 2.67-10.26z" fill="#808080"/></g><g><path d="m876.75-71.88c-18.81 9.41-42.33 21.17-62.42 31.21" fill="none"/><path d="m815.89-37.53-10.51 1.34 7.38-7.6z" fill="#808080"/></g><g><path d="m966.43-74.84c-2.85.98-5.68 1.94-8.43 2.84-43.88 14.3-94.25 28.45-131.65 38.53" fill="none"/><path d="m827.21-30.08-10.57-.79 8.76-5.97z" fill="#808080"/></g><g><path d="m1059.26-74.48c-2.78.89-5.55 1.73-8.26 2.48-76.52 21.22-167.16 36.67-224.13 45.24" fill="none"/><path d="m827.04-23.25-10.41-1.99 9.38-4.93z" fill="#808080"/></g><g><path d="m1152.3-74.34c-2.79.86-5.58 1.65-8.3 2.34-110.68 27.98-243.83 42.44-317.35 48.81" fill="none"/><path d="m826.94-19.7-10.27-2.64 9.67-4.33z" fill="#808080"/></g></g></g></svg>